# xmcd
#
# Track frame offsets:
#	150
#	10637
#	36509
#	51809
#	66282
#	86794
#	102884
#	121787
#	140164
#	161539
#	175478
#	202139
#	221339
#	241812
#	262510
#
# Disc length: 3721 seconds
#
# Revision: 1
# Processed by: cddbd v1.5.2PL0 Copyright (c) Steve Scherf et al.
# Submitted via: audiograbber 1.83.01
#
DISCID=cf0e870f
DTITLE=Tognoni, Rob - Boogie Like You Never Did
DYEAR=2012
DGENRE=Blues
TTITLE0=Reboot
TTITLE1=Spaceman
TTITLE2=The Broken String
TTITLE3=Boogie Like You Never Did
TTITLE4=Can`t See The Smoke
TTITLE5=Light Of Day
TTITLE6=The Rain
TTITLE7=Isolate
TTITLE8=Shoot To Kill
TTITLE9=God Bless America
TTITLE10=Words Of A Desperate Man
TTITLE11=No Guarantee
TTITLE12=Hoot, Shoot Electrocute
TTITLE13=The Real Thing
TTITLE14=Devil Outta Me
EXTD=
EXTT0=
EXTT1=
EXTT2=
EXTT3=
EXTT4=
EXTT5=
EXTT6=
EXTT7=
EXTT8=
EXTT9=
EXTT10=
EXTT11=
EXTT12=
EXTT13=
EXTT14=
PLAYORDER=
